<?xml version="1.0" encoding="UTF-8" standalone="no"?>
<svg
   width="512"
   height="512"
   viewBox="0 0 512.00001 512.00001"
   version="1.1"
   id="svg8"
   inkscape:version="1.1 (c68e22c387, 2021-05-23)"
   sodipodi:docname="logo_light_saturated.svg"
   inkscape:export-filename="/home/bubblefish/Programs/Inkscape/sphinix/logotype_light.png"
   inkscape:export-xdpi="96"
   inkscape:export-ydpi="96"
   xmlns:inkscape="http://www.inkscape.org/namespaces/inkscape"
   xmlns:sodipodi="http://sodipodi.sourceforge.net/DTD/sodipodi-0.dtd"
   xmlns:xlink="http://www.w3.org/1999/xlink"
   xmlns="http://www.w3.org/2000/svg"
   xmlns:svg="http://www.w3.org/2000/svg"
   xmlns:rdf="http://www.w3.org/1999/02/22-rdf-syntax-ns#"
   xmlns:cc="http://creativecommons.org/ns#"
   xmlns:dc="http://purl.org/dc/elements/1.1/">
  <defs
     id="defs2">
    <linearGradient
       inkscape:collect="always"
       id="linearGradient1379">
      <stop
         style="stop-color:#5aa595;stop-opacity:1"
         offset="0"
         id="stop1375" />
      <stop
         style="stop-color:#3e798d;stop-opacity:1"
         offset="1"
         id="stop1377" />
    </linearGradient>
    <linearGradient
       inkscape:collect="always"
       id="linearGradient10427">
      <stop
         style="stop-color:#87c6d1;stop-opacity:1"
         offset="0"
         id="stop10423" />
      <stop
         style="stop-color:#4691ad;stop-opacity:1"
         offset="1"
         id="stop10425" />
    </linearGradient>
    <linearGradient
       inkscape:collect="always"
       id="linearGradient10055">
      <stop
         style="stop-color:#f5f5f5;stop-opacity:1"
         offset="0"
         id="stop10051" />
      <stop
         style="stop-color:#c3e1eb;stop-opacity:1"
         offset="1"
         id="stop10053" />
    </linearGradient>
    <linearGradient
       inkscape:collect="always"
       xlink:href="#linearGradient10055"
       id="linearGradient10049"
       x1="250.29102"
       y1="131.99609"
       x2="250.29105"
       y2="383.80469"
       gradientUnits="userSpaceOnUse"
       gradientTransform="matrix(1.104592,0,0,1.104592,-26.035177,-28.174629)" />
    <linearGradient
       inkscape:collect="always"
       xlink:href="#linearGradient10427"
       id="linearGradient10429"
       x1="250.29102"
       y1="131.99609"
       x2="250.29105"
       y2="383.80469"
       gradientUnits="userSpaceOnUse"
       gradientTransform="matrix(1.104592,0,0,1.104592,-26.035177,-28.174629)" />
    <filter
       inkscape:collect="always"
       style="color-interpolation-filters:sRGB"
       id="filter15453"
       x="-0.12954128"
       y="-0.16989764"
       width="1.2590826"
       height="1.3397953">
      <feGaussianBlur
         inkscape:collect="always"
         stdDeviation="21.476726"
         id="feGaussianBlur15455" />
    </filter>
    <linearGradient
       inkscape:collect="always"
       xlink:href="#linearGradient1379"
       id="linearGradient1381"
       x1="447.96054"
       y1="143.70593"
       x2="447.96054"
       y2="421.12573"
       gradientUnits="userSpaceOnUse" />
    <linearGradient
       inkscape:collect="always"
       xlink:href="#linearGradient1379"
       id="linearGradient2641"
       gradientUnits="userSpaceOnUse"
       x1="447.96054"
       y1="143.70593"
       x2="447.96054"
       y2="421.12573" />
    <linearGradient
       inkscape:collect="always"
       xlink:href="#linearGradient1379"
       id="linearGradient2643"
       gradientUnits="userSpaceOnUse"
       x1="447.96054"
       y1="143.70593"
       x2="447.96054"
       y2="421.12573" />
  </defs>
  <sodipodi:namedview
     id="base"
     pagecolor="#241f31"
     bordercolor="#e49300"
     borderopacity="1"
     inkscape:pageopacity="0"
     inkscape:pageshadow="2"
     inkscape:zoom="0.98994949"
     inkscape:cx="234.86047"
     inkscape:cy="250.01275"
     inkscape:document-units="px"
     inkscape:current-layer="layer2"
     inkscape:document-rotation="0"
     showgrid="false"
     lock-margins="true"
     fit-margin-top="10"
     fit-margin-left="10"
     fit-margin-right="10"
     fit-margin-bottom="10"
     inkscape:pagecheckerboard="false"
     borderlayer="true"
     showborder="true"
     guidecolor="#ff00a5"
     guideopacity="0.49803922"
     guidehicolor="#ff0066"
     guidehiopacity="0.49803922"
     gridtolerance="10"
     inkscape:snap-path-clip="false"
     inkscape:snap-path-mask="false"
     inkscape:snap-perpendicular="true"
     inkscape:snap-tangential="true"
     inkscape:showpageshadow="false"
     inkscape:snap-global="true"
     inkscape:snap-bbox="true"
     inkscape:bbox-paths="true"
     inkscape:bbox-nodes="true"
     inkscape:snap-bbox-edge-midpoints="true"
     inkscape:snap-bbox-midpoints="true"
     inkscape:snap-page="true"
     units="px"
     inkscape:window-width="1920"
     inkscape:window-height="1050"
     inkscape:window-x="0"
     inkscape:window-y="2"
     inkscape:window-maximized="1" />
  <metadata
     id="metadata5">
    <rdf:RDF>
      <cc:Work
         rdf:about="">
        <dc:format>image/svg+xml</dc:format>
        <dc:type
           rdf:resource="http://purl.org/dc/dcmitype/StillImage" />
      </cc:Work>
    </rdf:RDF>
  </metadata>
  <g
     inkscape:groupmode="layer"
     id="layer2"
     inkscape:label="master"
     style="display:inline">
    <rect
       style="opacity:0.998322;fill:#163a36;fill-opacity:1;stroke:none;stroke-linecap:round;stroke-linejoin:round;paint-order:stroke fill markers"
       id="rect11429"
       width="512"
       height="512"
       x="0"
       y="0" />
    <path
       id="path11323-1"
       style="display:inline;opacity:0.2;fill:#000000;fill-opacity:1;stroke-width:1;stroke-linecap:round;stroke-linejoin:round;paint-order:stroke fill markers;filter:url(#filter15453)"
       d="m 257.51305,104.30834 c -76.84791,0 -111.63362,11.51434 -127.41991,37.7461 C 94.257231,159.67972 75.866899,198.3334 66.565796,265.11498 44.673892,422.29794 44.235847,429.19562 249.78454,382.30053 c 2.5597,0.0971 5.13418,0.1543 7.72851,0.1543 1.67501,0 3.3336,-0.0474 4.99414,-0.0879 205.25247,46.82094 204.80916,39.8557 182.92774,-117.25196 -8.90585,-63.94363 -26.1509,-102.08952 -59.05859,-120.68945 -1.6152,-2.99097 -3.44015,-5.81126 -5.53321,-8.44531 0,0 0,-0.002 0,-0.002 -1.09019,-1.37189 -2.24984,-2.69578 -3.48242,-3.97266 0,0 -0.002,-0.002 -0.002,-0.002 -2.46659,-2.555 -5.22717,-4.9215 -8.31641,-7.10352 -1.54461,-1.09099 -3.16941,-2.13515 -4.88281,-3.13477 0,0 -0.002,0 -0.002,0 -8.56702,-4.99816 -19.29933,-8.86109 -32.74218,-11.66796 -2.68856,-0.56136 -5.48468,-1.08115 -8.39453,-1.5586 -17.4591,-2.8647 -38.98027,-4.23047 -65.50782,-4.23047 z m -67.85742,72.6211 a 24.835852,24.835852 0 0 1 2.87695,0.17187 24.835852,24.835852 0 0 1 1.07227,0.1836 24.835852,24.835852 0 0 1 1.77734,0.32617 24.835852,24.835852 0 0 1 1.15039,0.33008 24.835852,24.835852 0 0 1 1.63672,0.50976 24.835852,24.835852 0 0 1 1.13672,0.4707 24.835852,24.835852 0 0 1 1.51563,0.6836 24.835852,24.835852 0 0 1 1.11328,0.61523 24.835852,24.835852 0 0 1 1.40039,0.84571 24.835852,24.835852 0 0 1 1.0332,0.73437 24.835852,24.835852 0 0 1 1.28906,1.00977 24.835852,24.835852 0 0 1 0.95313,0.85156 24.835852,24.835852 0 0 1 1.14648,1.14648 24.835852,24.835852 0 0 1 0.0664,0.0742 c -0.002,0.004 -0.006,0.008 -0.008,0.0117 a 24.835852,24.835852 0 0 1 3.59765,4.97852 24.835852,24.835852 0 0 1 0.0312,0.0547 24.835852,24.835852 0 0 1 2.22852,5.63282 24.835852,24.835852 0 0 1 0.0391,0.13476 24.835852,24.835852 0 0 1 0.77735,6.07031 24.835852,24.835852 0 0 1 -1.45508,8.29688 24.835852,24.835852 0 0 1 -0.0117,0.041 24.835852,24.835852 0 0 1 -4.1582,7.33984 24.835852,24.835852 0 0 1 -14.26563,8.59961 c -0.001,0.006 -9.2e-4,0.0132 -0.002,0.0195 a 24.835852,24.835852 0 0 1 -1.13867,0.20898 24.835852,24.835852 0 0 1 -0.91016,0.1543 24.835852,24.835852 0 0 1 -2.89258,0.17578 24.835852,24.835852 0 0 1 -24.83789,-24.83594 24.835852,24.835852 0 0 1 24.83789,-24.83593 z m 132.69141,0 a 24.835852,24.835852 0 0 1 0.002,0 24.835852,24.835852 0 0 1 2.79492,0.16797 24.835852,24.835852 0 0 1 0.79883,0.12695 24.835852,24.835852 0 0 1 0.36914,0.0625 24.835852,24.835852 0 0 1 1.60742,0.29492 24.835852,24.835852 0 0 1 0.77539,0.20703 24.835852,24.835852 0 0 1 0.54688,0.1582 24.835852,24.835852 0 0 1 1.41016,0.43946 24.835852,24.835852 0 0 1 0.66601,0.25586 24.835852,24.835852 0 0 1 0.69531,0.28711 24.835852,24.835852 0 0 1 1.26172,0.56836 24.835852,24.835852 0 0 1 0.57813,0.29492 24.835852,24.835852 0 0 1 0.78125,0.43164 24.835852,24.835852 0 0 1 1.17773,0.71289 24.835852,24.835852 0 0 1 0.38281,0.24805 24.835852,24.835852 0 0 1 0.86329,0.61328 24.835852,24.835852 0 0 1 1.27734,1 24.835852,24.835852 0 0 1 0.006,0.006 24.835852,24.835852 0 0 1 0.96875,0.86523 24.835852,24.835852 0 0 1 1.125,1.125 24.835852,24.835852 0 0 1 0.86914,0.9707 24.835852,24.835852 0 0 1 0.01,0.0117 24.835852,24.835852 0 0 1 0.98242,1.25196 24.835852,24.835852 0 0 1 0.63086,0.88867 24.835852,24.835852 0 0 1 0.25586,0.39258 24.835852,24.835852 0 0 1 0.71093,1.17773 24.835852,24.835852 0 0 1 0.4336,0.78516 24.835852,24.835852 0 0 1 0.28515,0.5625 24.835852,24.835852 0 0 1 0.5625,1.24804 24.835852,24.835852 0 0 1 0.27149,0.6543 24.835852,24.835852 0 0 1 0.28711,0.75 24.835852,24.835852 0 0 1 0.44726,1.43555 24.835852,24.835852 0 0 1 0.125,0.43359 24.835852,24.835852 0 0 1 0.21875,0.82031 24.835852,24.835852 0 0 1 0.33789,1.8418 24.835852,24.835852 0 0 1 0.0234,0.13281 24.835852,24.835852 0 0 1 0.12695,0.79883 24.835852,24.835852 0 0 1 0.16993,2.81445 24.835852,24.835852 0 0 1 -0.16993,2.8125 24.835852,24.835852 0 0 1 -0.12695,0.79102 24.835852,24.835852 0 0 1 -0.043,0.25 24.835852,24.835852 0 0 1 -0.31836,1.74414 24.835852,24.835852 0 0 1 -0.21093,0.78125 24.835852,24.835852 0 0 1 -0.14063,0.48633 24.835852,24.835852 0 0 1 -0.43945,1.41601 24.835852,24.835852 0 0 1 -0.2793,0.72657 24.835852,24.835852 0 0 1 -0.28516,0.68554 24.835852,24.835852 0 0 1 -0.55859,1.24024 24.835852,24.835852 0 0 1 -0.2832,0.55859 24.835852,24.835852 0 0 1 -0.42188,0.76367 24.835852,24.835852 0 0 1 -0.74023,1.22461 24.835852,24.835852 0 0 1 -0.23828,0.36719 24.835852,24.835852 0 0 1 -0.6211,0.87305 24.835852,24.835852 0 0 1 -1.00195,1.27929 24.835852,24.835852 0 0 1 -0.86523,0.9668 24.835852,24.835852 0 0 1 -1.11915,1.11914 24.835852,24.835852 0 0 1 -0.98632,0.88086 24.835852,24.835852 0 0 1 -0.0352,0.0273 24.835852,24.835852 0 0 1 -1.2207,0.95704 24.835852,24.835852 0 0 1 -0.89258,0.63476 24.835852,24.835852 0 0 1 -0.36328,0.23633 24.835852,24.835852 0 0 1 -1.21875,0.73633 24.835852,24.835852 0 0 1 -0.76367,0.42187 24.835852,24.835852 0 0 1 -0.55079,0.2793 24.835852,24.835852 0 0 1 -1.2832,0.57813 24.835852,24.835852 0 0 1 -0.64258,0.26757 24.835852,24.835852 0 0 1 -0.73047,0.2793 24.835852,24.835852 0 0 1 -1.43945,0.44727 24.835852,24.835852 0 0 1 -0.45117,0.13086 24.835852,24.835852 0 0 1 -0.80664,0.21484 24.835852,24.835852 0 0 1 -1.76758,0.32422 24.835852,24.835852 0 0 1 -0.22461,0.0391 24.835852,24.835852 0 0 1 -0.7793,0.125 24.835852,24.835852 0 0 1 -2.81445,0.16992 24.835852,24.835852 0 0 1 -5.91406,-0.93554 24.835852,24.835852 0 0 1 -5.15625,-2.00977 24.835852,24.835852 0 0 1 -2.3418,-1.19336 24.835852,24.835852 0 0 1 -4.32226,-3.74023 24.835852,24.835852 0 0 1 -1.73828,-1.73829 24.835852,24.835852 0 0 1 -3.02149,-5.33203 24.835852,24.835852 0 0 1 -0.93164,-1.83008 24.835852,24.835852 0 0 1 -1.41211,-8.05664 24.835852,24.835852 0 0 1 1.0957,-6.9082 24.835852,24.835852 0 0 1 0.9336,-2.36133 24.835852,24.835852 0 0 1 2.03125,-3.98633 24.835852,24.835852 0 0 1 1.71679,-2.37695 24.835852,24.835852 0 0 1 11.38282,-7.98828 24.835852,24.835852 0 0 1 7.67578,-1.21484 z" />
  </g>
  <g
     inkscape:label="background"
     inkscape:groupmode="layer"
     id="layer1"
     style="display:inline">
    <g
       id="g2639"
       transform="translate(7.0787509,-13.376348)">
      <g
         id="g1343"
         style="fill:url(#linearGradient1381);fill-opacity:1">
        <path
           id="path11323"
           style="opacity:0.998322;fill:url(#linearGradient2641);fill-opacity:1;stroke-width:1;stroke-linecap:round;stroke-linejoin:round;paint-order:stroke fill markers"
           d="m 314.47983,143.70593 c 77.62259,0 110.35398,37.63953 123.8761,134.72786 22.40343,160.85567 22.95104,164.48426 -197.38325,113.96714 -75.65946,-17.34681 -56.13571,-19.55965 -56.13571,-117.58511 0,-12.93458 0.93093,-24.70845 2.68165,-35.45482 a 24.835852,24.835852 0 0 0 19.89129,-24.27729 24.835852,24.835852 0 0 0 -6.67286,-16.87092 c 21.02505,-39.53245 61.58953,-54.50686 113.74278,-54.50686 z m 0.78745,46.54172 a 24.835852,24.835852 0 0 0 -24.83606,24.83606 24.835852,24.835852 0 0 0 24.83606,24.83606 24.835852,24.835852 0 0 0 24.83606,-24.83606 24.835852,24.835852 0 0 0 -24.83606,-24.83606 z" />
        <path
           id="path2771"
           style="opacity:0.998322;fill:url(#linearGradient2643);fill-opacity:1;stroke-width:1;stroke-linecap:round;stroke-linejoin:round;paint-order:stroke fill markers"
           d="m 183.36267,143.70593 c -77.6226,0 -110.353978,37.63953 -123.876106,134.72786 -22.403423,160.85567 -22.951031,164.48426 197.383256,113.96714 75.65946,-17.34681 56.13571,-19.55965 56.13571,-117.58511 0,-12.93458 -0.93093,-24.70845 -2.68165,-35.45482 a 24.835852,24.835852 0 0 1 -19.8913,-24.27729 24.835852,24.835852 0 0 1 6.67287,-16.87092 C 276.0804,158.68034 235.51592,143.70593 183.36267,143.70593 Z m -0.78745,46.54172 a 24.835852,24.835852 0 0 1 24.83606,24.83606 24.835852,24.835852 0 0 1 -24.83606,24.83606 24.835852,24.835852 0 0 1 -24.83606,-24.83606 24.835852,24.835852 0 0 1 24.83606,-24.83606 z" />
      </g>
      <path
         id="path845"
         style="opacity:0.998322;fill:url(#linearGradient10049);fill-opacity:1;stroke-width:1;stroke-linecap:round;stroke-linejoin:round;paint-order:stroke fill markers"
         d="m 250.43359,117.62695 c 4.42125,0 8.70409,0.0408 12.85157,0.11719 4.14749,0.0765 8.16051,0.19152 12.04296,0.3457 3.88246,0.15418 7.6336,0.34696 11.25977,0.58008 3.62619,0.23314 7.12721,0.50503 10.50586,0.81836 3.37866,0.31333 6.63552,0.66773 9.77539,1.0625 3.13988,0.39476 6.16244,0.8292 9.07227,1.30664 -17.4591,-2.8647 -38.98027,-4.23047 -65.50782,-4.23047 z m 0,0 c -141.34134,0 -140.54882,38.83392 -140.54882,136.85938 0,98.02546 62.92624,141.28711 140.54882,141.28711 a 27.814446,27.814446 0 0 1 -27.8125,-27.81641 27.814446,27.814446 0 0 1 27.8125,-27.8125 27.814446,27.814446 0 0 0 27.81641,-27.81641 27.814446,27.814446 0 0 0 -27.81641,-27.8125 27.814446,27.814446 0 0 1 -27.8125,-27.8164 27.814446,27.814446 0 0 1 27.8125,-27.8125 27.814446,27.814446 0 0 0 27.81641,-27.81445 27.814446,27.814446 0 0 0 -27.81641,-27.81446 27.814446,27.814446 0 0 1 -27.8125,-27.81445 27.814446,27.814446 0 0 1 27.8125,-27.81641 z m 73.9043,5.78907 c 2.68788,0.56125 5.2687,1.16612 7.74414,1.8125 2.47603,0.64654 4.84883,1.3354 7.12109,2.06836 2.27225,0.73293 4.44427,1.50947 6.52149,2.33007 2.07722,0.82059 4.0583,1.68623 5.94922,2.59571 1.23596,0.59446 2.37374,1.23835 3.5332,1.87109 -8.25533,-4.5063 -18.35691,-8.06518 -30.86914,-10.67773 z m 37.625,14.80273 c 1.54461,1.09101 3.008,2.23044 4.39258,3.41406 1.38386,1.18302 2.69109,2.41268 3.92383,3.68946 -2.46659,-2.555 -5.22717,-4.9215 -8.31641,-7.10352 z m 11.80078,11.08008 c 1.09075,1.37258 2.11141,2.79278 3.06836,4.26172 0.95666,1.46849 1.84995,2.98478 2.68164,4.55078 -1.6636,-3.13262 -3.5689,-6.06765 -5.75,-8.8125 z m 13.29492,30.96484 c 0.34159,1.67257 0.67045,3.36139 0.95508,5.10742 0.33785,2.07251 0.63895,4.19946 0.9043,6.37696 -0.48902,-4.0133 -1.11157,-7.82592 -1.85938,-11.48438 z m -204.48242,9.98438 a 24.835852,24.835852 0 0 1 24.83594,24.83593 24.835852,24.835852 0 0 1 -24.83594,24.83594 24.835852,24.835852 0 0 1 -24.83789,-24.83594 24.835852,24.835852 0 0 1 24.83789,-24.83593 z m 132.69336,0 a 24.835852,24.835852 0 0 1 2.68555,0.15039 24.835852,24.835852 0 0 0 -2.68555,-0.15039 z m 3.59375,0.29492 a 24.835852,24.835852 0 0 1 1.75586,0.29883 24.835852,24.835852 0 0 0 -1.75586,-0.29883 z m 2.75195,0.56445 a 24.835852,24.835852 0 0 1 1.61719,0.4668 24.835852,24.835852 0 0 0 -1.61719,-0.4668 z m 2.62305,0.85352 a 24.835852,24.835852 0 0 1 1.48047,0.61133 24.835852,24.835852 0 0 0 -1.48047,-0.61133 z m 2.53516,1.15039 a 24.835852,24.835852 0 0 1 1.31445,0.72656 24.835852,24.835852 0 0 0 -1.31445,-0.72656 z m 2.34179,1.39258 a 24.835852,24.835852 0 0 1 1.20118,0.85351 24.835852,24.835852 0 0 0 -1.20118,-0.85351 z m 2.14063,1.61328 a 24.835852,24.835852 0 0 1 1.14062,1.01953 24.835852,24.835852 0 0 0 -1.14062,-1.01953 z m 1.96484,1.8457 a 24.835852,24.835852 0 0 1 1.00391,1.12109 24.835852,24.835852 0 0 0 -1.00391,-1.12109 z m 56.39453,0.48047 c 0.20121,2.28449 0.37298,4.62167 0.51954,7.01367 0.29308,4.78338 0.48589,9.78304 0.61132,15.00391 -0.18812,-7.83169 -0.52612,-15.16469 -1.13086,-22.01758 z m -54.61914,1.5957 a 24.835852,24.835852 0 0 1 0.85157,1.19727 24.835852,24.835852 0 0 0 -0.85157,-1.19727 z m 1.51563,2.22071 a 24.835852,24.835852 0 0 1 0.73633,1.33203 24.835852,24.835852 0 0 0 -0.73633,-1.33203 z m 1.26562,2.37304 a 24.835852,24.835852 0 0 1 0.58985,1.42383 24.835852,24.835852 0 0 0 -0.58985,-1.42383 z m 1.00782,2.51367 a 24.835852,24.835852 0 0 1 0.4414,1.5293 24.835852,24.835852 0 0 0 -0.4414,-1.5293 z m 0.72461,2.5879 a 24.835852,24.835852 0 0 1 0.29687,1.73632 24.835852,24.835852 0 0 0 -0.29687,-1.73632 z m 0.44335,2.66406 a 24.835852,24.835852 0 0 1 0.1504,2.68554 24.835852,24.835852 0 0 0 -0.1504,-2.68554 z m 0.1504,2.68554 a 24.835852,24.835852 0 0 1 -0.1504,2.68555 24.835852,24.835852 0 0 0 0.1504,-2.68555 z m -0.29688,3.60352 a 24.835852,24.835852 0 0 1 -0.29687,1.75 24.835852,24.835852 0 0 0 0.29687,-1.75 z m -0.57226,2.77539 a 24.835852,24.835852 0 0 1 -0.45118,1.56445 24.835852,24.835852 0 0 0 0.45118,-1.56445 z m -0.85938,2.62891 a 24.835852,24.835852 0 0 1 -0.59961,1.44531 24.835852,24.835852 0 0 0 0.59961,-1.44531 z m -1.12695,2.48437 a 24.835852,24.835852 0 0 1 -0.73633,1.33203 24.835852,24.835852 0 0 0 0.73633,-1.33203 z m -1.40039,2.35547 a 24.835852,24.835852 0 0 1 -0.85157,1.19727 24.835852,24.835852 0 0 0 0.85157,-1.19727 z m -1.62305,2.15234 a 24.835852,24.835852 0 0 1 -0.99805,1.11524 24.835852,24.835852 0 0 0 0.99805,-1.11524 z m -1.83789,1.95508 a 24.835852,24.835852 0 0 1 -1.13281,1.01172 24.835852,24.835852 0 0 0 1.13281,-1.01172 z m -2.0586,1.76172 a 24.835852,24.835852 0 0 1 -1.22265,0.86914 24.835852,24.835852 0 0 0 1.22265,-0.86914 z m -2.23632,1.52734 a 24.835852,24.835852 0 0 1 -1.33203,0.73633 24.835852,24.835852 0 0 0 1.33203,-0.73633 z m -2.37305,1.26563 a 24.835852,24.835852 0 0 1 -1.43555,0.5957 24.835852,24.835852 0 0 0 1.43555,-0.5957 z m -2.50781,1.00586 a 24.835852,24.835852 0 0 1 -1.54883,0.44727 24.835852,24.835852 0 0 0 1.54883,-0.44727 z m -2.59375,0.72656 a 24.835852,24.835852 0 0 1 -1.75391,0.29883 24.835852,24.835852 0 0 0 1.75391,-0.29883 z m -2.66211,0.44336 a 24.835852,24.835852 0 0 1 -2.68555,0.15039 24.835852,24.835852 0 0 0 2.68555,-0.15039 z m 73.02734,14.7168 c 0,3.06329 -0.0621,6.07456 -0.18359,9.03125 -0.12143,2.95668 -0.3011,5.85821 -0.54102,8.70898 0.47984,-5.70155 0.72461,-11.61364 0.72461,-17.74023 z m -26.48828,91.16992 c -0.48258,0.64681 -0.94181,1.32111 -1.43555,1.95508 -1.34898,1.73212 -2.73972,3.41615 -4.17187,5.05078 -1.43215,1.63463 -2.90366,3.21998 -4.41602,4.75781 3.57808,-3.63837 6.90563,-7.58089 10.02344,-11.76367 z" />
      <path
         id="rect7591"
         style="opacity:0.998322;fill:url(#linearGradient10429);fill-opacity:1;stroke:none;stroke-width:1;stroke-linecap:round;stroke-linejoin:round;paint-order:stroke fill markers"
         d="m 250.43428,117.6272 a 27.814446,27.814446 0 0 0 -27.81328,27.81543 27.814446,27.814446 0 0 0 27.81328,27.81545 27.814446,27.814446 0 0 1 27.81544,27.81328 27.814446,27.814446 0 0 1 -27.81544,27.81543 27.814446,27.814446 0 0 0 -27.81328,27.81329 27.814446,27.814446 0 0 0 27.81328,27.81544 27.814446,27.814446 0 0 1 27.81544,27.81328 27.814446,27.814446 0 0 1 -27.81544,27.81544 27.814446,27.814446 0 0 0 -27.81328,27.81328 27.814446,27.814446 0 0 0 27.81328,27.81544 c 2.42571,0 4.83609,-0.0424 7.23162,-0.12729 2.39553,-0.0848 4.77646,-0.21147 7.13886,-0.38186 2.36241,-0.17039 4.7068,-0.38411 7.03315,-0.64075 2.32634,-0.25664 4.63362,-0.55605 6.92095,-0.89964 2.28734,-0.34359 4.55476,-0.7316 6.80014,-1.16284 2.2454,-0.43124 4.47022,-0.90644 6.67071,-1.42604 2.20048,-0.5196 4.37782,-1.08276 6.53047,-1.69141 2.15265,-0.60865 4.27973,-1.26267 6.3816,-1.96108 2.10188,-0.69841 4.17814,-1.44189 6.22628,-2.23076 2.04815,-0.78888 4.06868,-1.62256 6.06016,-2.5026 1.99147,-0.88003 3.95354,-1.80683 5.8854,-2.77873 1.93186,-0.97191 3.83272,-1.99042 5.70202,-3.05489 1.8693,-1.06447 3.70622,-2.17545 5.51002,-3.3332 1.80379,-1.15773 3.57401,-2.36193 5.30937,-3.61365 1.73536,-1.25171 3.43614,-2.54988 5.10011,-3.89627 1.66397,-1.3464 3.29257,-2.74145 4.88221,-4.18321 1.58964,-1.44177 3.14116,-2.93015 4.65353,-4.468 1.51236,-1.53783 2.98406,-3.1246 4.41621,-4.75923 1.43215,-1.63463 2.82344,-3.31837 4.17242,-5.05049 1.34898,-1.7321 2.65714,-3.51144 3.92001,-5.34173 1.26288,-1.8303 2.48081,-3.71028 3.65465,-5.63947 1.17382,-1.92918 2.30313,-3.90841 3.38497,-5.93718 1.08182,-2.02877 2.11761,-4.108 3.10451,-6.23706 0.98687,-2.12906 1.92423,-4.30904 2.81325,-6.5391 0.88902,-2.23006 1.72951,-4.50938 2.5177,-6.84114 0.78819,-2.33175 1.52475,-4.71548 2.20918,-7.14963 0.68442,-2.43416 1.31649,-4.91874 1.8942,-7.456 0.57771,-2.53726 1.10038,-5.12776 1.56843,-7.76883 0.46806,-2.64106 0.88074,-5.33392 1.2362,-8.07948 0.35545,-2.74556 0.65541,-5.54369 0.89532,-8.39447 0.23992,-2.85077 0.42008,-5.75276 0.54151,-8.70944 0.12144,-2.95669 0.18338,-5.96762 0.18338,-9.03091 0,-6.12659 0.004,-12.02161 -0.0238,-17.69073 -0.0277,-5.66912 -0.0881,-11.11213 -0.21358,-16.33372 -0.12543,-5.2216 -0.31743,-10.22076 -0.61055,-15.00476 -0.29312,-4.78401 -0.68597,-9.3518 -1.21678,-13.70816 -0.26541,-2.17818 -0.566,-4.30417 -0.90395,-6.3773 -0.33795,-2.07313 -0.71339,-4.09514 -1.13264,-6.06446 -0.41925,-1.96934 -0.88224,-3.88704 -1.39153,-5.75381 -0.50928,-1.86676 -1.06605,-3.682 -1.67414,-5.44745 -0.60809,-1.76545 -1.26704,-3.48004 -1.98266,-5.14541 -0.71563,-1.66537 -1.4873,-3.28116 -2.31921,-4.84769 -0.83192,-1.56653 -1.7247,-3.08318 -2.68166,-4.55214 -0.95695,-1.46894 -1.97708,-2.89044 -3.06783,-4.26302 -1.09075,-1.3726 -2.25093,-2.69646 -3.48421,-3.97395 -1.23329,-1.27748 -2.53975,-2.5077 -3.92432,-3.69132 -1.38458,-1.18362 -2.84787,-2.32201 -4.39248,-3.41302 -1.54461,-1.09099 -3.17097,-2.13509 -4.88437,-3.13471 -1.7134,-0.99962 -3.51337,-1.95339 -5.40431,-2.86288 -1.89092,-0.90948 -3.8729,-1.77476 -5.95012,-2.59535 -2.07722,-0.8206 -4.24959,-1.59706 -6.52183,-2.33 -2.27226,-0.73295 -4.64558,-1.42242 -7.12161,-2.06896 -2.47603,-0.64653 -5.05652,-1.25085 -7.74509,-1.81222 -2.68856,-0.56136 -5.48462,-1.0802 -8.39447,-1.55765 -2.90983,-0.47744 -5.93201,-0.91262 -9.07189,-1.30738 -3.13987,-0.39477 -6.39655,-0.74812 -9.77521,-1.06145 -3.37865,-0.31333 -6.88038,-0.58668 -10.50657,-0.81982 -3.62617,-0.23312 -7.37704,-0.42616 -11.2595,-0.58034 -3.88245,-0.15418 -7.89515,-0.26871 -12.04264,-0.34518 -4.14748,-0.0764 -8.43041,-0.1165 -12.85166,-0.1165 z m 64.83437,72.62045 a 24.835852,24.835852 0 0 1 24.8339,24.83606 24.835852,24.835852 0 0 1 -24.8339,24.83606 24.835852,24.835852 0 0 1 -24.83607,-24.83606 24.835852,24.835852 0 0 1 24.83607,-24.83606 z" />
    </g>
  </g>
</svg>
