<?xml version="1.0" encoding="UTF-8" standalone="no"?>
<!-- Created with Inkscape (http://www.inkscape.org/) -->

<svg
   sodipodi:docname="PFPSkyblock.svg"
   inkscape:version="1.1 (c68e22c387, 2021-05-23)"
   id="svg5"
   version="1.1"
   viewBox="0 0 158.75 158.75"
   height="600"
   width="600"
   inkscape:export-filename="C:\Users\RuMaks\Pictures\SPHINIX SERVERS\Profile Pics\PFPSkyblock.png"
   inkscape:export-xdpi="96"
   inkscape:export-ydpi="96"
   xmlns:inkscape="http://www.inkscape.org/namespaces/inkscape"
   xmlns:sodipodi="http://sodipodi.sourceforge.net/DTD/sodipodi-0.dtd"
   xmlns:xlink="http://www.w3.org/1999/xlink"
   xmlns="http://www.w3.org/2000/svg"
   xmlns:svg="http://www.w3.org/2000/svg">
  <sodipodi:namedview
     id="namedview7"
     pagecolor="#101010"
     bordercolor="#eeeeee"
     borderopacity="0.50196078"
     inkscape:pageshadow="0"
     inkscape:pageopacity="1"
     inkscape:pagecheckerboard="0"
     inkscape:document-units="mm"
     showgrid="false"
     units="px"
     borderlayer="true"
     inkscape:showpageshadow="false"
     inkscape:snap-bbox="true"
     inkscape:bbox-paths="true"
     inkscape:bbox-nodes="true"
     inkscape:snap-bbox-edge-midpoints="true"
     inkscape:snap-bbox-midpoints="true"
     inkscape:object-paths="true"
     inkscape:snap-intersection-paths="true"
     inkscape:snap-smooth-nodes="true"
     inkscape:snap-midpoints="true"
     inkscape:snap-object-midpoints="true"
     inkscape:snap-center="true"
     inkscape:snap-text-baseline="true"
     inkscape:snap-page="true"
     gridtolerance="5.9"
     objecttolerance="5.9"
     guidetolerance="5.9"
     inkscape:snap-perpendicular="true"
     inkscape:snap-tangential="true"
     inkscape:snap-global="true"
     inkscape:zoom="0.96520076"
     inkscape:cx="391.11034"
     inkscape:cy="239.84648"
     inkscape:window-width="1920"
     inkscape:window-height="1027"
     inkscape:window-x="-8"
     inkscape:window-y="22"
     inkscape:window-maximized="1"
     inkscape:current-layer="layer1"
     showguides="false"
     showborder="true" />
  <defs
     id="defs2">
    <linearGradient
       inkscape:collect="always"
       id="linearGradient844">
      <stop
         style="stop-color:#8df457;stop-opacity:1"
         offset="0"
         id="stop840" />
      <stop
         style="stop-color:#1dcf76;stop-opacity:1"
         offset="1"
         id="stop842" />
    </linearGradient>
    <linearGradient
       id="linearGradient15821"
       inkscape:swatch="solid">
      <stop
         style="stop-color:#ff4b4b;stop-opacity:1;"
         offset="0"
         id="stop15819" />
    </linearGradient>
    <inkscape:path-effect
       effect="fillet_chamfer"
       id="path-effect6005"
       is_visible="true"
       lpeversion="1"
       satellites_param="F,0,0,1,0,0,0,1 @ F,0,0,1,0,0,0,1 @ F,0,0,1,0,0,0,1 @ F,0,0,1,0,0,0,1 @ F,0,0,1,0,0,0,1 @ F,0,0,1,0,0,0,1 @ F,0,0,1,0,0,0,1 @ F,0,0,1,0,0,0,1 @ F,0,0,1,0,0,0,1 @ F,0,0,1,0,0,0,1 @ F,0,0,1,0,0,0,1 @ F,0,0,1,0,0,0,1 @ F,0,0,1,0,0,0,1 @ F,0,0,1,0,0,0,1 @ F,0,0,1,0,0,0,1 @ F,0,0,1,0,0,0,1 @ F,0,0,1,0,0,0,1 @ F,0,0,1,0,0,0,1 @ F,0,0,1,0,0,0,1 @ F,0,0,1,0,0,0,1 @ F,0,0,1,0,0,0,1 @ F,0,0,1,0,0,0,1 @ F,0,0,1,0,0,0,1 @ F,0,0,1,0,0,0,1 @ F,0,0,1,0,0,0,1 @ F,0,0,1,0,0,0,1 @ F,0,0,1,0,0,0,1 @ F,0,0,1,0,0,0,1 @ F,0,0,1,0,0,0,1 @ F,0,0,1,0,0,0,1 | F,0,0,1,0,0,0,1 @ F,0,0,1,0,0,0,1 @ F,0,0,1,0,0,0,1"
       unit="px"
       method="auto"
       mode="F"
       radius="0"
       chamfer_steps="1"
       flexible="false"
       use_knot_distance="true"
       apply_no_radius="true"
       apply_with_radius="true"
       only_selected="false"
       hide_knots="false" />
    <inkscape:path-effect
       effect="rough_hatches"
       id="path-effect5984"
       is_visible="true"
       lpeversion="1"
       direction="136.09098,19.728249 , 0.080549865,-0.033073336"
       dist_rdm="75;723871020"
       growth="0"
       do_bend="true"
       bender="133.34593,23.769134 , 5,0"
       bottom_edge_variation="1.5484467;1"
       top_edge_variation="1.5484467;1"
       bottom_tgt_variation="0;1"
       top_tgt_variation="0;1"
       scale_bf="1"
       scale_bb="1"
       scale_tf="1"
       scale_tb="1"
       top_smth_variation="0;1"
       bottom_smth_variation="0;1"
       fat_output="true"
       stroke_width_top="1"
       stroke_width_bottom="1"
       front_thickness="1"
       back_thickness="0.25" />
    <inkscape:path-effect
       effect="simplify"
       id="path-effect9645"
       is_visible="true"
       lpeversion="1"
       steps="5"
       threshold="0.0001"
       smooth_angles="0"
       helper_size="5"
       simplify_individual_paths="false"
       simplify_just_coalesce="false" />
    <inkscape:path-effect
       effect="spiro"
       id="path-effect9138"
       is_visible="true"
       lpeversion="1" />
    <inkscape:path-effect
       effect="spiro"
       id="path-effect9134"
       is_visible="true"
       lpeversion="1" />
    <inkscape:path-effect
       effect="lattice2"
       gridpoint0="33.873839,48.96924"
       gridpoint1="69.175381,45.089192"
       gridpoint2="32.727461,70.129658"
       gridpoint3="69.087199,68.277817"
       gridpoint4="42.588996,46.23557"
       gridpoint5="60.460224,42.796437"
       gridpoint6="41.971715,70.129658"
       gridpoint7="60.460224,70.129658"
       gridpoint8x9="51.83325,44.648278"
       gridpoint10x11="51.21597,70.129658"
       gridpoint12="32.727461,49.629742"
       gridpoint13="69.704479,49.629742"
       gridpoint14="32.727461,63.296353"
       gridpoint15="69.704479,63.296353"
       gridpoint16="42.677179,47.689718"
       gridpoint17="60.460224,49.629742"
       gridpoint18="41.971715,63.296353"
       gridpoint19="60.107493,64.795462"
       gridpoint20x21="50.951421,46.719707"
       gridpoint22x23="51.21597,63.296353"
       gridpoint24x26="32.727461,56.463047"
       gridpoint25x27="69.704479,56.463047"
       gridpoint28x30="41.971715,56.463047"
       gridpoint29x31="60.460224,56.463047"
       gridpoint32x33x34x35="51.21597,56.463047"
       id="path-effect5539"
       is_visible="true"
       lpeversion="1"
       horizontal_mirror="false"
       vertical_mirror="false"
       perimetral="false"
       live_update="true" />
    <inkscape:path-effect
       effect="spiro"
       id="path-effect4988"
       is_visible="true"
       lpeversion="1" />
    <inkscape:path-effect
       effect="spiro"
       id="path-effect4984"
       is_visible="true"
       lpeversion="1" />
    <inkscape:path-effect
       effect="spiro"
       id="path-effect4866"
       is_visible="true"
       lpeversion="1" />
    <inkscape:path-effect
       effect="spiro"
       id="path-effect4862"
       is_visible="true"
       lpeversion="1" />
    <inkscape:path-effect
       effect="spiro"
       id="path-effect4736"
       is_visible="true"
       lpeversion="1" />
    <inkscape:path-effect
       effect="spiro"
       id="path-effect4728"
       is_visible="true"
       lpeversion="1" />
    <inkscape:path-effect
       effect="spiro"
       id="path-effect1615"
       is_visible="true"
       lpeversion="1" />
    <linearGradient
       inkscape:collect="always"
       xlink:href="#linearGradient844"
       id="linearGradient846"
       x1="158.75"
       y1="0"
       x2="0"
       y2="158.75"
       gradientUnits="userSpaceOnUse" />
  </defs>
  <g
     inkscape:label="Layer 1"
     inkscape:groupmode="layer"
     id="layer1">
    <path
       style="color:#000000;fill:#171717;stroke-linecap:round;stroke-linejoin:round;stroke-dasharray:47.6252, 23.8126;stroke-dashoffset:94.0598;-inkscape-stroke:none"
       d="m -11.861328,114.77539 c -0.848098,-1e-5 -1.697006,0.0413 -2.544922,0.12695 -3.073352,0.30853 -6.069234,1.18612 -8.828125,2.59766 -3.276061,1.67222 -6.140079,4.05197 -8.384766,6.96289 a 5.9531498,5.9531498 0 0 0 1.078125,8.34961 5.9531498,5.9531498 0 0 0 8.34961,-1.07813 c 1.15881,-1.50274 2.684535,-2.76958 4.373047,-3.63085 a 5.9537451,5.9537451 0 0 0 0.0078,-0.004 c 1.418401,-0.7257 3.000695,-1.18974 4.595703,-1.34961 a 5.9537451,5.9537451 0 0 0 0.0039,-0.002 c 0.446076,-0.045 0.897152,-0.0664 1.34961,-0.0664 h 25.003906 a 5.9531498,5.9531498 0 0 0 5.953125,-5.95312 5.9531498,5.9531498 0 0 0 -5.953125,-5.95313 z m 48.816406,0 a 5.9531498,5.9531498 0 0 0 -5.953125,5.95313 5.9531498,5.9531498 0 0 0 5.953125,5.95312 h 47.625 a 5.9531498,5.9531498 0 0 0 5.953125,-5.95312 5.9531498,5.9531498 0 0 0 -5.953125,-5.95313 z m 71.437502,0 a 5.9531498,5.9531498 0 0 0 -5.95313,5.95313 5.9531498,5.9531498 0 0 0 5.95313,5.95312 h 31.71289 a 5.9537451,5.9537451 0 0 0 0.004,0 c 1.58725,-0.001 3.18584,0.28739 4.64649,0.8418 a 5.9537451,5.9537451 0 0 0 0.006,0.002 c 1.60159,0.60562 3.10744,1.55499 4.35156,2.74219 a 5.9537451,5.9537451 0 0 0 0.002,0.002 c 0.24363,0.23244 0.47091,0.46645 0.6836,0.70313 a 5.9531498,5.9531498 0 0 0 8.4082,0.44921 5.9531498,5.9531498 0 0 0 0.44727,-8.4082 c -0.42896,-0.47732 -0.86942,-0.92918 -1.32032,-1.35937 -2.40339,-2.29343 -5.24668,-4.08591 -8.36132,-5.26367 -2.84548,-1.07897 -5.85392,-1.61749 -8.8711,-1.61524 z m 46.64453,28.64258 a 5.9531498,5.9531498 0 0 0 -3.59766,2.79297 c -0.92559,1.62416 -2.23902,3.07403 -3.76758,4.1582 a 5.9537451,5.9537451 0 0 0 -0.006,0.004 c -1.36884,0.9733 -2.95555,1.68432 -4.58985,2.05859 a 5.9537451,5.9537451 0 0 0 -0.0332,0.008 c -3.34682,0.78662 -8.091,-0.15287 -13.83594,-1.12304 -5.74494,-0.97018 -12.99148,-1.78214 -19.79883,2.29687 a 5.9531498,5.9531498 0 0 0 -2.04687,8.16602 5.9531498,5.9531498 0 0 0 8.16601,2.04687 c 3.02,-1.8096 6.53293,-1.64133 11.69532,-0.76953 5.15848,0.87114 11.46386,2.63033 18.52929,0.97461 3.16753,-0.7279 6.16181,-2.07032 8.8086,-3.95117 l 0.002,-0.002 c 2.95637,-2.09737 5.42352,-4.81712 7.2207,-7.9707 a 5.9531498,5.9531498 0 0 0 -2.22461,-8.12109 5.9531498,5.9531498 0 0 0 -4.52148,-0.56836 z m -181.513672,1.11914 a 5.9531498,5.9531498 0 0 0 -4.462891,0.91211 5.9531498,5.9531498 0 0 0 -1.597656,8.26562 c 1.001573,1.48141 2.159857,2.84919 3.451172,4.08008 2.401279,2.2909 5.240348,4.08229 8.351562,5.25977 2.845869,1.08018 5.855154,1.61874 8.873047,1.61718 h 29.078125 a 5.9531498,5.9531498 0 0 0 5.953125,-5.95312 5.9531498,5.9531498 0 0 0 -5.953125,-5.95313 h -29.078125 a 5.9537451,5.9537451 0 0 0 -0.0039,0 c -1.587243,0.001 -3.183881,-0.28738 -4.644532,-0.84179 a 5.9537451,5.9537451 0 0 0 -0.0078,-0.002 c -1.601592,-0.60562 -3.10744,-1.55499 -4.351563,-2.74218 a 5.9537451,5.9537451 0 0 0 -0.002,-0.002 c -0.674789,-0.64321 -1.282923,-1.36202 -1.802734,-2.13086 a 5.9531498,5.9531498 0 0 0 -3.802734,-2.50976 z m 67.505859,8.22851 a 5.9531498,5.9531498 0 0 0 -5.953125,5.95313 5.9531498,5.9531498 0 0 0 5.953125,5.95312 h 47.625 a 5.9531498,5.9531498 0 0 0 5.953125,-5.95312 5.9531498,5.9531498 0 0 0 -5.953125,-5.95313 z"
       id="rect6433"
       transform="rotate(-45)" />
    <path
       style="color:#000000;fill:#171717;stroke-linecap:round;stroke-linejoin:round;stroke-dasharray:47.6252, 23.8126;stroke-dashoffset:79.7722;-inkscape-stroke:none"
       d="m -136.66016,62.210937 c -1.33002,2.1e-4 -2.66681,0.103876 -3.99804,0.31836 a 5.9531498,5.9531498 0 0 0 -4.93164,6.824219 5.9531498,5.9531498 0 0 0 6.82422,4.93164 c 0.68586,-0.110504 1.39256,-0.167754 2.10546,-0.167969 h 0.002 39.289059 a 5.9531498,5.9531498 0 0 0 5.953125,-5.953125 5.9531498,5.9531498 0 0 0 -5.953125,-5.953125 z m 63.103519,0 a 5.9531498,5.9531498 0 0 0 -5.953125,5.953125 5.9531498,5.9531498 0 0 0 5.953125,5.953125 h 47.625 a 5.9531498,5.9531498 0 0 0 5.953125,-5.953125 5.9531498,5.9531498 0 0 0 -5.953125,-5.953125 z m 71.4375004,0 a 5.9531498,5.9531498 0 0 0 -5.953125,5.953125 5.9531498,5.9531498 0 0 0 5.953125,5.953125 H 15.306641 a 5.9537451,5.9537451 0 0 0 0.0039,0 c 1.587243,-0.0012 3.183881,0.289343 4.644531,0.84375 a 5.9537451,5.9537451 0 0 0 0.0078,0.002 c 1.601591,0.605622 3.10744,1.55499 4.351562,2.742187 a 5.9537451,5.9537451 0 0 0 0.0059,0.0039 c 1.280812,1.219541 2.322653,2.730186 3.00586,4.353516 a 5.9537451,5.9537451 0 0 0 0.0039,0.0059 c 0.604428,1.431232 0.951558,3.005005 1.009766,4.576172 0.0097,0.262725 0.01247,0.50927 0.0078,0.740235 A 5.9531498,5.9531498 0 0 0 34.179687,93.457031 5.9531498,5.9531498 0 0 0 40.25,87.625 c 0.0099,-0.489312 0.0052,-0.962748 -0.01172,-1.419922 a 5.9537451,5.9537451 0 0 0 -0.002,-0.002 c -0.111266,-3.003316 -0.759472,-5.972967 -1.935547,-8.759766 -1.328369,-3.156265 -3.297083,-5.999437 -5.771484,-8.355468 -2.400198,-2.289078 -5.238429,-4.080835 -8.347656,-5.257813 -2.847708,-1.08088 -5.859054,-1.621394 -8.878907,-1.619141 z M -154.50781,78.3125 a 5.9531498,5.9531498 0 0 0 -6.80078,4.962891 c -0.25158,1.610395 -0.34138,3.232539 -0.28125,4.841796 2e-5,6.47e-4 -3e-5,0.0013 0,0.002 2e-5,6.47e-4 -3e-5,0.0013 0,0.002 0.11173,3.003431 0.76282,5.974964 1.93945,8.761718 2.4e-4,5.75e-4 -2.4e-4,0.0014 0,0.002 1.32833,3.153034 3.29529,5.995594 5.76758,8.349614 2.40083,2.28968 5.23942,4.08084 8.34961,5.25781 2.84587,1.08018 5.85515,1.61874 8.87304,1.61719 h 14.79102 a 5.9531498,5.9531498 0 0 0 5.95312,-5.95313 5.9531498,5.9531498 0 0 0 -5.95312,-5.95312 h -14.79102 a 5.9537451,5.9537451 0 0 0 -0.004,0 c -1.58725,0.001 -3.18388,-0.287395 -4.64453,-0.841802 a 5.9537451,5.9537451 0 0 0 -0.008,-0.0039 c -1.60159,-0.605622 -3.10744,-1.554991 -4.35156,-2.742188 a 5.9537451,5.9537451 0 0 0 -0.004,-0.0039 c -1.28082,-1.21954 -2.32461,-2.728232 -3.00782,-4.351562 a 5.9537451,5.9537451 0 0 0 -0.004,-0.0078 c -0.60443,-1.431232 -0.94961,-3.005005 -1.00782,-4.576172 a 5.9537451,5.9537451 0 0 0 0,-0.002 c -0.0324,-0.864283 0.016,-1.725119 0.14649,-2.560547 A 5.9531498,5.9531498 0 0 0 -154.50781,78.3125 Z M 19.171875,99.628906 c -1.233304,0.379604 -2.548687,0.574674 -3.863281,0.574224 a 5.9537451,5.9537451 0 0 0 -0.002,0 h -41.925782 a 5.9531498,5.9531498 0 0 0 -5.953125,5.95312 5.9531498,5.9531498 0 0 0 5.953125,5.95313 h 41.923829 c 2.485147,8.6e-4 4.970118,-0.36316 7.36914,-1.10157 a 5.9531498,5.9531498 0 0 0 3.939453,-7.4414 5.9531498,5.9531498 0 0 0 -7.441406,-3.937504 z m -117.228516,0.574224 a 5.9531498,5.9531498 0 0 0 -5.953129,5.95312 5.9531498,5.9531498 0 0 0 5.953129,5.95313 h 47.625 a 5.9531498,5.9531498 0 0 0 5.953125,-5.95313 5.9531498,5.9531498 0 0 0 -5.953125,-5.95312 z"
       id="rect6261"
       transform="rotate(-45)" />
    <path
       id="path15784-5"
       style="font-variation-settings:normal;fill:url(#linearGradient846);fill-opacity:1;stroke:none;stroke-width:12.493;stroke-linecap:butt;stroke-linejoin:miter;stroke-miterlimit:4;stroke-dasharray:none;stroke-dashoffset:0;stroke-opacity:1;paint-order:stroke fill markers;stop-color:#000000"
       d="m 103.5538,52.757147 c -1.88695,-0.02131 -3.857949,0.118766 -5.901443,0.438763 L 30.294206,69.716048 c 8.584115,5.550457 18.483712,8.194905 28.518672,8.811169 -3.602583,5.355781 -13.233928,23.692063 -18.558801,36.340443 10.044721,11.00622 24.25592,17.27946 39.156728,17.28486 13.318837,-0.002 26.149355,-5.01537 35.941715,-14.04317 L 103.44745,99.783507 c -3.09792,-4.938986 -2.63433,-10.280229 0.12707,-15.169315 5.16478,-7.050751 13.95405,-7.617034 20.59377,-2.482952 8.00764,-13.869708 -2.37415,-29.168052 -20.61449,-29.374093 z m 3.12523,11.463109 c -1.80962,1.963275 -6.35157,5.994036 -10.012737,6.484346 -3.716586,-0.07864 -6.15434,-1.872085 -7.84319,-3.751257 5.465333,-1.888455 13.699917,-2.807013 17.855927,-2.733089 z"
       sodipodi:nodetypes="scccccccccscccc"
       inkscape:transform-center-x="0.77600052"
       inkscape:transform-center-y="13.078776" />
    <path
       id="path5024"
       style="color:#000000;fill:#171717;stroke-width:7.68669;-inkscape-stroke:none;paint-order:stroke fill markers"
       d="M 300.00586 -1296.2129 C -570.32561 -1296.2129 -1296.2148 -570.33733 -1296.2148 299.99414 C -1296.2148 1170.3257 -570.32561 1896.2148 300.00586 1896.2148 C 1170.3374 1896.2148 1896.2129 1170.3257 1896.2129 299.99414 C 1896.2129 -570.33733 1170.3374 -1296.2129 300.00586 -1296.2129 z M 300.00586 -0.013671875 C 300.28115 -0.013671875 300.55485 0.0088417155 300.83008 0.009765625 C 300.55272 0.0090084605 300.27753 6.3579533e-17 300 0 C 299.72965 0 299.46159 0.00904713 299.19141 0.009765625 C 299.46342 0.0088632088 299.73379 -0.013671875 300.00586 -0.013671875 z M 300 45 C 441.09891 45 555 158.90107 555 300 C 555 441.09891 441.09891 555 300 555 C 158.90107 555 45 441.09891 45 300 C 45 158.90107 158.90107 45 300 45 z M 599.99023 299.16406 C 599.99117 299.44125 600.01367 299.71689 600.01367 299.99414 C 600.01367 300.26816 599.99115 300.54049 599.99023 300.81445 C 599.99096 300.54231 600 300.27231 600 300 C 600 299.72051 599.991 299.44338 599.99023 299.16406 z "
       transform="scale(0.26458333)" />
  </g>
</svg>
