<svg width="600" height="600" version="1.1" viewBox="0 0 158.75 158.75" xmlns="http://www.w3.org/2000/svg">
 <g transform="matrix(.95228 0 0 .95228 3.7881 3.7881)">
  <g transform="matrix(1.06 0 0 1.06 -4.7036 -5.1848)">
   <g transform="matrix(1.0626 0 0 1.0626 -4.9652 -4.9652)">
    <g transform="matrix(1.126 0 0 1.126 -152.01 1.7079)">
     <path d="m256.5 69.307a51.057 51.057 0 0 1-51.057 51.057 51.057 51.057 0 0 1-51.057-51.057 51.057 51.057 0 0 1 51.057-51.057 51.057 51.057 0 0 1 51.057 51.057z" fill="#171717" stop-color="#000000" stroke-width=".47125" style="paint-order:stroke fill markers"/>
     <path d="m235.36 36.647c-2.3382-0.02642-4.7806 0.14717-7.3127 0.54369l-83.467 20.471c10.637 6.8778 22.904 10.155 35.339 10.918-4.4641 6.6366-16.399 29.358-22.997 45.031 12.447 13.638 30.057 21.412 48.521 21.418 16.504-3e-3 32.403-6.2148 44.537-17.402l-14.752-22.708c-3.8388-6.1201-3.2643-12.739 0.15745-18.797 6.3999-8.7369 17.291-9.4386 25.519-3.0767 9.9226-17.187-2.9419-36.143-25.544-36.399zm3.8726 14.204c-2.2424 2.4328-7.8705 7.4275-12.407 8.0351-4.6054-0.09746-7.6261-2.3198-9.7189-4.6484 6.7724-2.3401 16.976-3.4783 22.126-3.3867z" fill="#ff9f2c" stop-color="#000000" style="font-variation-settings:normal;paint-order:stroke fill markers"/>
    </g>
   </g>
  </g>
 </g>
</svg>
